<svg viewBox="0 0 100 100" xmlns="http://www.w3.org/2000/svg">
  <circle cx="50" cy="50" r="45" fill="#192841"/>
  <circle cx="35" cy="45" r="8" fill="#E63946"/>
  <circle cx="65" cy="45" r="8" fill="#4DEEEA"/>
  <circle cx="65" cy="45" r="4" fill="#2A4B8D"/>
  <circle cx="67" cy="43" r="1.5" fill="white"/>
  <path d="M42 65 Q50 70 58 65" stroke="white" stroke-width="2" fill="none"/>
  <path d="M20 25 Q35 10 50 25 Q65 10 80 25" stroke="#4DEEEA" stroke-width="2" fill="none"/>
  <path d="M25 85 L35 65 L40 70 L50 60 L60 70 L65 65 L75 85" fill="#1D7D81"/>
  <line x1="35" y1="65" x2="25" y2="85" stroke="#4DEEEA" stroke-width="1"/>
  <line x1="65" y1="65" x2="75" y2="85" stroke="#4DEEEA" stroke-width="1"/>
  <circle cx="50" cy="30" r="1.5" fill="#E63946"/>
  <rect x="45" y="20" width="10" height="2" fill="#4DEEEA"/>
</svg>