<svg xmlns="http://www.w3.org/2000/svg" version="1.0" width="1024.000000pt" height="1024.000000pt" viewBox="0 0 1024.000000 1024.000000" preserveAspectRatio="xMidYMid meet">

<g transform="translate(0.000000,1024.000000) scale(0.100000,-0.100000)" fill="#dc2626" stroke="none">
<path d="M3115 8597 c-19 -317 62 -661 211 -895 19 -29 34 -54 34 -57 0 -2 -25 -41 -55 -86 -109 -159 -197 -368 -236 -559 -29 -142 -36 -385 -15 -529 18 -119 69 -301 111 -397 l25 -57 -54 -66 c-253 -311 -375 -677 -376 -1127 0 -245 30 -446 101 -679 155 -507 586 -1192 1169 -1860 289 -332 775 -788 990 -929 45 -30 64 -36 107 -36 45 0 60 6 120 47 233 159 649 546 938 873 311 352 632 782 830 1110 109 181 281 530 333 675 145 401 180 853 96 1235 -33 150 -75 274 -129 385 -43 89 -156 265 -216 337 l-31 37 30 73 c87 210 116 367 116 613 0 146 -4 199 -22 281 -44 204 -135 419 -246 582 l-54 80 35 53 c53 78 129 242 157 341 40 139 58 285 60 475 0 94 -2 174 -6 178 -8 9 -95 -52 -236 -164 -235 -188 -451 -295 -704 -350 -127 -27 -152 -27 -303 9 -494 118 -1026 117 -1560 -5 -60 -14 -129 -25 -152 -25 -57 0 -253 61 -382 118 -160 72 -310 161 -476 283 -82 61 -162 119 -177 130 l-26 19 -7 -113z m343 -435 c118 -83 368 -187 568 -237 161 -41 194 -42 289 -15 232 67 555 110 822 110 279 0 487 -27 757 -97 137 -36 140 -36 220 -23 252 39 534 139 683 242 24 16 43 26 43 23 0 -25 -39 -133 -71 -200 -47 -95 -124 -193 -201 -255 l-56 -45 83 -87 c181 -190 304 -427 346 -668 16 -95 16 -301 0 -405 -43 -262 -148 -468 -344 -672 l-100 -103 81 0 c86 0 199 19 272 45 l45 16 37 -43 c131 -154 231 -385 275 -638 25 -141 22 -466 -5 -620 -75 -414 -339 -948 -729 -1472 -294 -395 -482 -617 -753 -889 -238 -239 -557 -519 -590 -519 -32 0 -352 282 -591 520 -488 486 -888 1012 -1197 1575 -94 172 -151 303 -217 499 -153 454 -137 940 42 1301 35 70 123 206 165 257 l23 27 85 -25 c58 -17 121 -27 200 -31 l115 -6 -98 102 c-192 202 -295 406 -339 665 -18 105 -14 354 6 449 53 242 164 451 338 633 50 52 84 94 76 94 -28 0 -146 120 -197 200 -53 82 -103 194 -119 268 -11 48 -4 52 36 24z" fill="#dc2626"/>
<path d="M4147 7210 c-142 -36 -276 -167 -312 -305 -64 -247 93 -491 347 -538 155 -29 338 53 427 191 69 108 82 303 27 415 -42 87 -115 161 -201 203 -65 32 -85 37 -162 40 -48 2 -105 -1 -126 -6z" fill="#dc2626"/>
<path d="M5860 7197 c-114 -39 -203 -118 -257 -230 -37 -76 -44 -209 -14 -303 37 -122 128 -220 253 -273 52 -21 78 -26 153 -26 83 0 96 3 168 37 98 47 171 118 218 213 32 66 34 75 34 175 0 99 -2 110 -32 171 -102 207 -320 306 -523 236z" fill="#dc2626"/>
<path d="M4899 6447 c-44 -29 -71 -82 -65 -126 3 -18 63 -141 133 -272 101 -189 133 -241 151 -246 14 -3 29 0 37 8 8 8 70 120 139 249 136 254 145 283 107 346 -34 56 -67 64 -279 64 -180 0 -191 -1 -223 -23z" fill="#dc2626"/>
</g>
</svg>